<svg width="42" height="48" viewBox="0 0 42 48" fill="none" xmlns="http://www.w3.org/2000/svg">
<ellipse cx="20.7173" cy="24.3383" rx="15.9726" ry="20.0799" transform="rotate(-15 20.7173 24.3383)" fill="#BA7017"/>
<ellipse cx="21.8913" cy="24.0235" rx="14.7557" ry="20.0799" transform="rotate(-15 21.8913 24.0235)" fill="#F7931A"/>
<path fill-rule="evenodd" clip-rule="evenodd" d="M27.0884 43.4192C34.96 41.31 39.0145 30.9164 36.1442 20.2045C33.274 9.49254 24.5659 2.51865 16.6943 4.62785C8.82264 6.73705 4.76821 17.1306 7.63846 27.8426C10.5087 38.5545 19.2167 45.5284 27.0884 43.4192ZM26.2204 40.186C32.7801 38.4284 36.1588 29.767 33.7669 20.8404C31.3751 11.9138 24.1184 6.10224 17.5587 7.85991C10.999 9.61758 7.62026 18.2789 10.0121 27.2055C12.404 36.1321 19.6607 41.9437 26.2204 40.186Z" fill="#F8A43D"/>
<path d="M26.9561 20.5689C26.6271 18.4065 25.1354 17.5963 23.3076 17.279L23.0729 14.2933L21.6694 14.2069L21.898 17.1139C21.529 17.0912 21.1526 17.0774 20.7787 17.0639L20.5489 14.1377L19.1461 14.051L19.3802 17.0359C19.077 17.0252 18.7791 17.0141 18.4882 16.9964L18.4873 16.9871L16.5514 16.8668L16.7043 18.8079C16.7043 18.8079 17.7387 18.8463 17.7235 18.8699C18.292 18.9052 18.5106 19.344 18.5934 19.7161L18.8608 23.1175C18.9001 23.1202 18.9514 23.1255 19.0102 23.1393C18.9634 23.1365 18.9133 23.133 18.8619 23.1304L19.236 27.8954C19.2293 28.1255 19.1532 28.4884 18.756 28.4648C18.7756 28.4865 17.7358 28.4015 17.7358 28.4015L17.6275 30.5548L19.4539 30.6674C19.7939 30.6889 20.1289 30.717 20.4574 30.7399L20.6953 33.7597L22.0973 33.8465L21.8625 30.8587C22.2482 30.8927 22.6211 30.9197 22.9848 30.9417L23.2179 33.9157L24.6214 34.0021L24.3849 30.9878C26.7307 30.9581 28.3217 30.2902 28.3013 27.4336C28.2853 25.1335 27.365 24.0508 25.9928 23.5516C26.7644 23.0653 27.1989 22.1513 26.9561 20.5689ZM25.4999 26.9046C25.6781 29.1614 22.6739 28.7206 21.7227 28.663L21.4087 24.6621C22.3602 24.7211 25.3151 24.5509 25.4999 26.9046ZM24.4036 21.2195C24.5645 23.2726 22.057 22.8795 21.2647 22.8307L20.9796 19.202C21.7719 19.2508 24.2351 19.0781 24.4036 21.2195Z" fill="white"/>
</svg>