<svg width="43" height="49" viewBox="0 0 43 49" fill="none" xmlns="http://www.w3.org/2000/svg">
<ellipse cx="21.4269" cy="24.7399" rx="16.6589" ry="20.6153" transform="rotate(-15 21.4269 24.7399)" fill="#474E68"/>
<ellipse cx="22.654" cy="24.4111" rx="15.3896" ry="20.6153" transform="rotate(-15 22.654 24.4111)" fill="#6A77A8"/>
<path fill-rule="evenodd" clip-rule="evenodd" d="M27.9911 44.3235C36.2009 42.1237 40.4675 31.4251 37.5207 20.4275C34.5739 9.42997 25.5297 2.298 17.3198 4.49783C9.10999 6.69765 4.84343 17.3962 7.79022 28.3938C10.737 39.3913 19.7812 46.5233 27.9911 44.3235ZM27.0998 41.005C33.9413 39.1719 37.4968 30.2564 35.0411 21.0917C32.5855 11.9271 25.0486 5.98381 18.2071 7.817C11.3655 9.65018 7.81008 18.5657 10.2657 27.7303C12.7214 36.8949 20.2583 42.8382 27.0998 41.005Z" fill="#818CB6"/>
<path d="M24.0335 29.3556L23.6824 25.0959L25.1781 23.6951L24.9727 21.1914L24.942 21.1362L23.4697 22.5151L22.8802 15.3626L19.3688 16.3035L20.1347 25.6386L18.9764 26.7234L19.1891 29.3042L20.3466 28.2203L20.7979 33.7219L30.1431 31.2178L29.8674 27.7924L24.0335 29.3556Z" fill="white"/>
</svg>