<svg width="14" height="15" viewBox="0 0 14 15" fill="none" xmlns="http://www.w3.org/2000/svg" class="tr-a w-[16px] h-[17px] fill-current text-base text-white group-hover:rotate-[-15deg] group-hover:scale-[1.25] group-hover:transform"><path d="M13.125 10.5029V11.5967C13.125 12.2 12.6341 12.6904 12.0312 12.6904H2.625C1.65987 12.6904 0.875 11.9056 0.875 10.9404C0.875 10.9404 0.875 3.50949 0.875 3.50293C0.875 2.5378 1.65987 1.75293 2.625 1.75293H10.7188C11.0814 1.75293 11.375 2.04693 11.375 2.40918C11.375 2.77143 11.0814 3.06543 10.7188 3.06543H2.625C2.38394 3.06543 2.1875 3.26143 2.1875 3.50293C2.1875 3.74443 2.38394 3.94043 2.625 3.94043H12.0312C12.6341 3.94043 13.125 4.43087 13.125 5.03418V6.12793H10.9375C9.73131 6.12793 8.75 7.10924 8.75 8.31543C8.75 9.52162 9.73131 10.5029 10.9375 10.5029H13.125Z"></path><path d="M13.125 7.00293V9.62793H10.9375C10.2126 9.62793 9.625 9.04037 9.625 8.31543C9.625 7.59049 10.2126 7.00293 10.9375 7.00293H13.125Z"></path></svg>